# Export of cg
# from Aaro4130 OBJ Exporter v2.0
mtllib simplev5.mtl
g Quad
v 1.5 1.822748 -8.752964
v -1.5 2.322748 -8.752964
v -1.5 1.822748 -8.752964
v 1.5 2.322748 -8.752964
vn 0 0 -0.1622214
vn 0 0 -0.1622214
vn 0 0 -0.1622214
vn 0 0 -0.1622214
vt 0 0
vt 1 1
vt 1 0
vt 0 1
usemtl Default-Material
f 3/3/3 2/2/2 1/1/1
f 4/4/4 1/1/1 2/2/2
g Quad
v 1.5 0.8227482 -9.752964
v -1.5 1.322748 -9.752964
v -1.5 0.8227482 -9.752964
v 1.5 1.322748 -9.752964
vn 0 0 -0.1622214
vn 0 0 -0.1622214
vn 0 0 -0.1622214
vn 0 0 -0.1622214
vt 0 0
vt 1 1
vt 1 0
vt 0 1
usemtl Default-Material
f 7/7/7 6/6/6 5/5/5
f 8/8/8 5/5/5 6/6/6
g Quad (1)
v 1.5 1.822748 -9.252964
v -1.5 1.822748 -8.752964
v -1.5 1.822748 -9.252964
v 1.5 1.822748 -8.752964
vn 0 0.1622215 1.933831E-08
vn 0 0.1622215 1.933831E-08
vn 0 0.1622215 1.933831E-08
vn 0 0.1622215 1.933831E-08
vt 0 0
vt 1 1
vt 1 0
vt 0 1
usemtl Default-Material
f 11/11/11 10/10/10 9/9/9
f 12/12/12 9/9/9 10/10/10
g Quad (1)
v 1.5 2.322748 -8.752964
v -1.5 2.322748 -8.252964
v -1.5 2.322748 -8.752964
v 1.5 2.322748 -8.252964
vn 0 0.1622215 1.933831E-08
vn 0 0.1622215 1.933831E-08
vn 0 0.1622215 1.933831E-08
vn 0 0.1622215 1.933831E-08
vt 0 0
vt 1 1
vt 1 0
vt 0 1
usemtl Default-Material
f 15/15/15 14/14/14 13/13/13
f 16/16/16 13/13/13 14/14/14
g Quad
v 1.5 1.322748 -9.252964
v -1.5 1.822748 -9.252964
v -1.5 1.322748 -9.252964
v 1.5 1.822748 -9.252964
vn 0 0 -0.1622214
vn 0 0 -0.1622214
vn 0 0 -0.1622214
vn 0 0 -0.1622214
vt 0 0
vt 1 1
vt 1 0
vt 0 1
usemtl Default-Material
f 19/19/19 18/18/18 17/17/17
f 20/20/20 17/17/17 18/18/18
g Quad (1)
v 1.5 1.322748 -9.752964
v -1.5 1.322748 -9.252964
v -1.5 1.322748 -9.752964
v 1.5 1.322748 -9.252964
vn 0 0.1622215 1.933831E-08
vn 0 0.1622215 1.933831E-08
vn 0 0.1622215 1.933831E-08
vn 0 0.1622215 1.933831E-08
vt 0 0
vt 1 1
vt 1 0
vt 0 1
usemtl Default-Material
f 23/23/23 22/22/22 21/21/21
f 24/24/24 21/21/21 22/22/22
g Cube
v -5 0.8427482 1.697036
v 5 0.8427482 1.697036
v -5 2.342748 1.697036
v 5 2.342748 1.697036
v -5 2.342748 -8.302964
v 5 2.342748 -8.302964
v -5 0.8427482 -8.302964
v 5 0.8427482 -8.302964
v -5 2.342748 1.697036
v 5 2.342748 1.697036
v -5 2.342748 -8.302964
v 5 2.342748 -8.302964
v -5 0.8427482 -8.302964
v -5 0.8427482 1.697036
v 5 0.8427482 1.697036
v 5 0.8427482 -8.302964
v 5 0.8427482 1.697036
v 5 2.342748 1.697036
v 5 2.342748 -8.302964
v 5 0.8427482 -8.302964
v -5 0.8427482 -8.302964
v -5 2.342748 -8.302964
v -5 2.342748 1.697036
v -5 0.8427482 1.697036
vn 0 0 0.7031626
vn 0 0 0.7031626
vn 0 0 0.7031626
vn 0 0 0.7031626
vn 0 0.1054744 0
vn 0 0.1054744 0
vn 0 0 -0.7031626
vn 0 0 -0.7031626
vn 0 0.1054744 0
vn 0 0.1054744 0
vn 0 0 -0.7031626
vn 0 0 -0.7031626
vn 0 -0.1054744 0
vn 0 -0.1054744 0
vn 0 -0.1054744 0
vn 0 -0.1054744 0
vn 0.7031626 0 0
vn 0.7031626 0 0
vn 0.7031626 0 0
vn 0.7031626 0 0
vn -0.7031626 0 0
vn -0.7031626 0 0
vn -0.7031626 0 0
vn -0.7031626 0 0
vt 0 0
vt 1 0
vt 0 1
vt 1 1
vt 0 1
vt 1 1
vt 0 1
vt 1 1
vt 0 0
vt 1 0
vt 0 0
vt 1 0
vt 0 0
vt 0 1
vt 1 1
vt 1 0
vt 0 0
vt 0 1
vt 1 1
vt 1 0
vt 0 0
vt 0 1
vt 1 1
vt 1 0
usemtl Default-Material
f 28/28/28 27/27/27 25/25/25
f 26/26/26 28/28/28 25/25/25
f 30/30/30 29/29/29 33/33/33
f 34/34/34 30/30/30 33/33/33
f 32/32/32 31/31/31 35/35/35
f 36/36/36 32/32/32 35/35/35
f 39/39/39 38/38/38 37/37/37
f 40/40/40 39/39/39 37/37/37
f 43/43/43 42/42/42 41/41/41
f 44/44/44 43/43/43 41/41/41
f 47/47/47 46/46/46 45/45/45
f 48/48/48 47/47/47 45/45/45
g Cube
v -1.59 0.8227482 -7.782964
v -1.49 0.8227482 -7.782964
v -1.59 2.322748 -7.782964
v -1.49 2.322748 -7.782964
v -1.59 2.322748 -9.782964
v -1.49 2.322748 -9.782964
v -1.59 0.8227482 -9.782964
v -1.49 0.8227482 -9.782964
v -1.59 2.322748 -7.782964
v -1.49 2.322748 -7.782964
v -1.59 2.322748 -9.782964
v -1.49 2.322748 -9.782964
v -1.59 0.8227482 -9.782964
v -1.59 0.8227482 -7.782964
v -1.49 0.8227482 -7.782964
v -1.49 0.8227482 -9.782964
v -1.49 0.8227482 -7.782964
v -1.49 2.322748 -7.782964
v -1.49 2.322748 -9.782964
v -1.49 0.8227482 -9.782964
v -1.59 0.8227482 -9.782964
v -1.59 2.322748 -9.782964
v -1.59 2.322748 -7.782964
v -1.59 0.8227482 -7.782964
vn 0 0 0.7993608
vn 0 0 0.7993608
vn 0 0 0.7993608
vn 0 0 0.7993608
vn 0 0.5995206 0
vn 0 0.5995206 0
vn 0 0 -0.7993608
vn 0 0 -0.7993608
vn 0 0.5995206 0
vn 0 0.5995206 0
vn 0 0 -0.7993608
vn 0 0 -0.7993608
vn 0 -0.5995206 0
vn 0 -0.5995206 0
vn 0 -0.5995206 0
vn 0 -0.5995206 0
vn 0.03996804 0 0
vn 0.03996804 0 0
vn 0.03996804 0 0
vn 0.03996804 0 0
vn -0.03996804 0 0
vn -0.03996804 0 0
vn -0.03996804 0 0
vn -0.03996804 0 0
vt 0 0
vt 1 0
vt 0 1
vt 1 1
vt 0 1
vt 1 1
vt 0 1
vt 1 1
vt 0 0
vt 1 0
vt 0 0
vt 1 0
vt 0 0
vt 0 1
vt 1 1
vt 1 0
vt 0 0
vt 0 1
vt 1 1
vt 1 0
vt 0 0
vt 0 1
vt 1 1
vt 1 0
usemtl Default-Material
f 52/52/52 51/51/51 49/49/49
f 50/50/50 52/52/52 49/49/49
f 54/54/54 53/53/53 57/57/57
f 58/58/58 54/54/54 57/57/57
f 56/56/56 55/55/55 59/59/59
f 60/60/60 56/56/56 59/59/59
f 63/63/63 62/62/62 61/61/61
f 64/64/64 63/63/63 61/61/61
f 67/67/67 66/66/66 65/65/65
f 68/68/68 67/67/67 65/65/65
f 71/71/71 70/70/70 69/69/69
f 72/72/72 71/71/71 69/69/69
g Cube (1)
v 1.49 0.8227482 -7.782964
v 1.59 0.8227482 -7.782964
v 1.49 2.322748 -7.782964
v 1.59 2.322748 -7.782964
v 1.49 2.322748 -9.782964
v 1.59 2.322748 -9.782964
v 1.49 0.8227482 -9.782964
v 1.59 0.8227482 -9.782964
v 1.49 2.322748 -7.782964
v 1.59 2.322748 -7.782964
v 1.49 2.322748 -9.782964
v 1.59 2.322748 -9.782964
v 1.49 0.8227482 -9.782964
v 1.49 0.8227482 -7.782964
v 1.59 0.8227482 -7.782964
v 1.59 0.8227482 -9.782964
v 1.59 0.8227482 -7.782964
v 1.59 2.322748 -7.782964
v 1.59 2.322748 -9.782964
v 1.59 0.8227482 -9.782964
v 1.49 0.8227482 -9.782964
v 1.49 2.322748 -9.782964
v 1.49 2.322748 -7.782964
v 1.49 0.8227482 -7.782964
vn 0 0 0.7993608
vn 0 0 0.7993608
vn 0 0 0.7993608
vn 0 0 0.7993608
vn 0 0.5995206 0
vn 0 0.5995206 0
vn 0 0 -0.7993608
vn 0 0 -0.7993608
vn 0 0.5995206 0
vn 0 0.5995206 0
vn 0 0 -0.7993608
vn 0 0 -0.7993608
vn 0 -0.5995206 0
vn 0 -0.5995206 0
vn 0 -0.5995206 0
vn 0 -0.5995206 0
vn 0.03996804 0 0
vn 0.03996804 0 0
vn 0.03996804 0 0
vn 0.03996804 0 0
vn -0.03996804 0 0
vn -0.03996804 0 0
vn -0.03996804 0 0
vn -0.03996804 0 0
vt 0 0
vt 1 0
vt 0 1
vt 1 1
vt 0 1
vt 1 1
vt 0 1
vt 1 1
vt 0 0
vt 1 0
vt 0 0
vt 1 0
vt 0 0
vt 0 1
vt 1 1
vt 1 0
vt 0 0
vt 0 1
vt 1 1
vt 1 0
vt 0 0
vt 0 1
vt 1 1
vt 1 0
usemtl Default-Material
f 76/76/76 75/75/75 73/73/73
f 74/74/74 76/76/76 73/73/73
f 78/78/78 77/77/77 81/81/81
f 82/82/82 78/78/78 81/81/81
f 80/80/80 79/79/79 83/83/83
f 84/84/84 80/80/80 83/83/83
f 87/87/87 86/86/86 85/85/85
f 88/88/88 87/87/87 85/85/85
f 91/91/91 90/90/90 89/89/89
f 92/92/92 91/91/91 89/89/89
f 95/95/95 94/94/94 93/93/93
f 96/96/96 95/95/95 93/93/93
g Chao
v 100 0.760006 -50.00005
v -100 0.759994 50.00005
v -100 0.760006 -50.00005
v 100 0.759994 50.00005
vn 0 0.004472092 5.331148E-10
vn 0 0.004472092 5.331148E-10
vn 0 0.004472092 5.331148E-10
vn 0 0.004472092 5.331148E-10
vt 0 0
vt 1 1
vt 1 0
vt 0 1
usemtl Default-Material
f 99/99/99 98/98/98 97/97/97
f 100/100/100 97/97/97 98/98/98
